<?xml version="1.0" encoding="UTF-8"?>
<svg width="30px" height="24px" viewBox="0 0 30 24" version="1.1" xmlns="http://www.w3.org/2000/svg" xmlns:xlink="http://www.w3.org/1999/xlink">
    <title>bottom_tab4_s</title>
    <defs>
        <linearGradient x1="-44.8822966%" y1="-7.78927542%" x2="100%" y2="92.3200023%" id="linearGradient-1">
            <stop stop-color="#5B5FFD" offset="0%"></stop>
            <stop stop-color="#7C42FC" offset="100%"></stop>
        </linearGradient>
    </defs>
    <g id="右上角插件" stroke="none" stroke-width="1" fill="none" fill-rule="evenodd">
        <g id="切图" transform="translate(-271.000000, -28.000000)" fill-rule="nonzero">
            <g id="bottom_tab4_s" transform="translate(271.000000, 28.000000)">
                <path d="M18.9627628,23.0000006 L12.0372372,23.0000006 C10.0545635,23.0000006 8.20099407,21.9366282 7.20504632,20.2315665 L3.74689443,14.2730176 C2.75103519,12.5568663 2.75103519,10.4431349 3.74689443,8.72698363 L7.20504632,2.76843473 C8.20306593,1.05423335 10.0448198,-0.000934608993 12.0372372,6.21177948e-07 L18.9627628,6.21177948e-07 C20.9454365,6.21177948e-07 22.7990059,1.06337305 23.7949537,2.76843473 L27.2531056,8.72698363 C28.2489648,10.4431349 28.2489648,12.5568663 27.2531056,14.2730176 L23.7949537,20.2315665 C22.7923844,21.9412299 20.9535111,22.9947476 18.9627628,23.0000006 Z" id="形状" fill="url(#linearGradient-1)"></path>
                <path d="M15.5,16 C13.0157171,16 11,13.9842829 11,11.5 C11,9.01571709 13.0157171,7 15.5,7 C17.9842829,7 20,9.01571709 20,11.5 C20,13.9842829 17.9842829,16 15.5,16 Z" id="形状" fill="#FFFFFF"></path>
            </g>
        </g>
    </g>
</svg>