<?xml version="1.0" encoding="UTF-8"?>
<svg width="30px" height="24px" viewBox="0 0 30 24" version="1.1" xmlns="http://www.w3.org/2000/svg" xmlns:xlink="http://www.w3.org/1999/xlink">
    <title>bottom_tab2_s</title>
    <g id="右上角插件" stroke="none" stroke-width="1" fill="none" fill-rule="evenodd">
        <g id="切图" transform="translate(-131.000000, -128.000000)" stroke="#3E3B61" stroke-width="1.5">
            <g id="bottom_tab2_n" transform="translate(131.000000, 128.000000)">
                <path d="M11,0.75 C11.8974627,0.75 12.7099627,1.11376864 13.298097,1.70190296 C13.8862314,2.29003728 14.25,3.10253728 14.25,4 L14.25,4 L14.25,9 C14.25,9.34517797 14.110089,9.65767797 13.8838835,9.88388348 C13.657678,10.110089 13.345178,10.25 13,10.25 L13,10.25 L8,10.25 C7.10253728,10.25 6.29003728,9.88623136 5.70190296,9.29809704 C5.11376864,8.70996272 4.75,7.89746272 4.75,7 L4.75,7 L4.75,4 C4.75,3.10253728 5.11376864,2.29003728 5.70190296,1.70190296 C6.29003728,1.11376864 7.10253728,0.75 8,0.75 L8,0.75 Z" id="矩形"></path>
                <path d="M23,0.75 C23.8974627,0.75 24.7099627,1.11376864 25.298097,1.70190296 C25.8862314,2.29003728 26.25,3.10253728 26.25,4 L26.25,4 L26.25,9 C26.25,9.34517797 26.110089,9.65767797 25.8838835,9.88388348 C25.657678,10.110089 25.345178,10.25 25,10.25 L25,10.25 L20,10.25 C19.1025373,10.25 18.2900373,9.88623136 17.701903,9.29809704 C17.1137686,8.70996272 16.75,7.89746272 16.75,7 L16.75,7 L16.75,4 C16.75,3.10253728 17.1137686,2.29003728 17.701903,1.70190296 C18.2900373,1.11376864 19.1025373,0.75 20,0.75 L20,0.75 Z" id="矩形" transform="translate(21.500000, 5.500000) scale(-1, 1) translate(-21.500000, -5.500000) "></path>
                <path d="M11,12.75 C11.8974627,12.75 12.7099627,13.1137686 13.298097,13.701903 C13.8862314,14.2900373 14.25,15.1025373 14.25,16 L14.25,16 L14.25,21 C14.25,21.345178 14.110089,21.657678 13.8838835,21.8838835 C13.657678,22.110089 13.345178,22.25 13,22.25 L13,22.25 L8,22.25 C7.10253728,22.25 6.29003728,21.8862314 5.70190296,21.298097 C5.11376864,20.7099627 4.75,19.8974627 4.75,19 L4.75,19 L4.75,16 C4.75,15.1025373 5.11376864,14.2900373 5.70190296,13.701903 C6.29003728,13.1137686 7.10253728,12.75 8,12.75 L8,12.75 Z" id="矩形" transform="translate(9.500000, 17.500000) scale(1, -1) translate(-9.500000, -17.500000) "></path>
                <path d="M23,12.75 C23.8974627,12.75 24.7099627,13.1137686 25.298097,13.701903 C25.8862314,14.2900373 26.25,15.1025373 26.25,16 L26.25,16 L26.25,21 C26.25,21.345178 26.110089,21.657678 25.8838835,21.8838835 C25.657678,22.110089 25.345178,22.25 25,22.25 L25,22.25 L20,22.25 C19.1025373,22.25 18.2900373,21.8862314 17.701903,21.298097 C17.1137686,20.7099627 16.75,19.8974627 16.75,19 L16.75,19 L16.75,16 C16.75,15.1025373 17.1137686,14.2900373 17.701903,13.701903 C18.2900373,13.1137686 19.1025373,12.75 20,12.75 L20,12.75 Z" id="矩形" transform="translate(21.500000, 17.500000) scale(-1, -1) translate(-21.500000, -17.500000) "></path>
            </g>
        </g>
    </g>
</svg>