<?xml version="1.0" encoding="UTF-8"?>
<svg width="30px" height="24px" viewBox="0 0 30 24" version="1.1" xmlns="http://www.w3.org/2000/svg" xmlns:xlink="http://www.w3.org/1999/xlink">
    <title>bottom_tab1_n</title>
    <g id="右上角插件" stroke="none" stroke-width="1" fill="none" fill-rule="evenodd">
        <g id="切图" transform="translate(-60.000000, -128.000000)">
            <g id="bottom_tab1_n" transform="translate(60.000000, 128.000000)">
                <path d="M14.575471,0.75 C17.5175786,0.75 20.3558444,1.94282587 22.4230785,3.92837408 C24.3736394,5.80185946 25.6367847,8.38563462 25.6367847,11.3445946 C25.6367847,14.4535212 24.5128563,17.2330726 22.5125637,19.2069615 C20.5879724,21.1061484 17.858901,22.25 14.575471,22.25 C11.6881291,22.25 9.11234157,21.0430804 7.25367802,19.0923479 C5.36817535,17.1134468 4.22016704,14.3717684 4.22016704,11.3445946 C4.22016704,8.35986445 5.36463881,5.72482995 7.22052722,3.82895194 C9.09913361,1.90986643 11.7046059,0.75 14.575471,0.75 Z" id="椭圆形" stroke="#3E3B61" stroke-width="1.5"></path>
                <path d="M10.9462672,22.8378223 C11.8395143,24.9496316 12.8923343,25.8649332 14.15357,25.861282 C16.6156953,25.8539937 18.9977743,21.4090807 19.0857477,12.6431663 C19.1737211,3.87725185 16.6279152,-1.0676655 13.9999072,-1.0658013 C12.7970026,-1.0649442 11.8204125,-0.0814960168 10.9836538,1.8265674" id="路径" stroke="#3E3B61" stroke-width="1.5" stroke-linecap="round" transform="translate(15.017115, 12.397740) rotate(80.000000) translate(-15.017115, -12.397740) "></path>
                <ellipse id="椭圆形" fill="#3E3B61" cx="10.8300734" cy="9.47645036" rx="1.4" ry="1.39536928"></ellipse>
            </g>
        </g>
    </g>
</svg>