<?xml version="1.0" encoding="UTF-8"?>
<svg width="30px" height="24px" viewBox="0 0 30 24" version="1.1" xmlns="http://www.w3.org/2000/svg" xmlns:xlink="http://www.w3.org/1999/xlink">
    <title>bottom_tab4_s</title>
    <g id="右上角插件" stroke="none" stroke-width="1" fill="none" fill-rule="evenodd">
        <g id="切图" transform="translate(-271.000000, -128.000000)" fill="#3E3B61">
            <g id="bottom_tab4_n" transform="translate(271.000000, 128.000000)">
                <path d="M18.9627628,23.0000006 L12.0372372,23.0000006 C10.0545635,23.0000006 8.20099407,21.9366282 7.20504632,20.2315665 L3.74689443,14.2730176 C2.75103519,12.5568663 2.75103519,10.4431349 3.74689443,8.72698363 L7.20504632,2.76843473 C8.20306593,1.05423335 10.0448198,-0.000934608993 12.0372372,6.21177948e-07 L18.9627628,6.21177948e-07 C20.9454365,6.21177948e-07 22.7990059,1.06337305 23.7949537,2.76843473 L27.2531056,8.72698363 C28.2489648,10.4431349 28.2489648,12.5568663 27.2531056,14.2730176 L23.7949537,20.2315665 C22.7923844,21.9412299 20.9535111,22.9947476 18.9627628,23.0000006 Z M11.8186288,1.48625012 C10.5147076,1.48625012 9.30882564,2.18096637 8.66176702,3.30621099 L4.98529757,9.66628926 C4.33822988,10.793662 4.33822988,12.1788382 4.98529757,13.306211 L8.66176702,19.6662893 C9.30882564,20.7915339 10.5245115,21.4862501 11.8186288,21.4862501 L19.1813716,21.4862501 C20.4852928,21.4862501 21.6911748,20.7915339 22.3382334,19.6662893 L26.0147028,13.306211 C26.6617615,12.1809664 26.6617615,10.7915339 26.0147028,9.66628926 L22.3382334,3.30621099 C21.686294,2.18124073 20.4835036,1.48782063 19.1813716,1.48625012 L11.8186288,1.48625012 Z" id="形状" fill-rule="nonzero"></path>
                <path d="M15.5,16 C13.0157171,16 11,13.9842829 11,11.5 C11,9.01571709 13.0157171,7 15.5,7 C17.9842829,7 20,9.01571709 20,11.5 C20,13.9842829 17.9842829,16 15.5,16 Z M12.5108454,11.4862501 C12.5108454,13.1844272 13.686346,14.5053574 15.4999968,14.5053574 C17.3136476,14.5053574 18.5473336,13.2909183 18.5473336,11.5000003 C18.5473336,9.70908235 17.3397102,8.51876539 15.5,8.51876539 C13.6602898,8.51876539 12.5108454,9.78807309 12.5108454,11.4862501 Z" id="形状" fill-rule="nonzero"></path>
                <path d="M15.5,12.6896543 C16.1627417,12.6896543 16.7,12.152396 16.7,11.4896543 C16.7,10.8269126 16.1627417,10.2896543 15.5,10.2896543 C14.8372583,10.2896543 14.3,10.8269126 14.3,11.4896543 C14.3,12.152396 14.8372583,12.6896543 15.5,12.6896543 Z" id="椭圆形"></path>
            </g>
        </g>
    </g>
</svg>