<?xml version="1.0" encoding="UTF-8"?>
<svg width="30px" height="24px" viewBox="0 0 30 24" version="1.1" xmlns="http://www.w3.org/2000/svg" xmlns:xlink="http://www.w3.org/1999/xlink">
    <title>bottom_tab3_s</title>
    <g id="右上角插件" stroke="none" stroke-width="1" fill="none" fill-rule="evenodd">
        <g id="切图" transform="translate(-201.000000, -128.000000)">
            <g id="bottom_tab3_n" transform="translate(201.000000, 128.000000)">
                <path d="M25.9133306,15.5317342 C25.0923596,19.229785 21.7220743,22 17.6891977,22 L10.4151733,22 C5.76760143,22 2,18.3209486 2,13.7826087 L2,9.2173913 C2,4.6790514 5.76760143,1 10.4151733,1 L17.6891977,1 C21.7091891,1 25.0708164,3.75254135 25.9053835,7.43284794" id="路径" stroke="#3E3B61" stroke-width="1.5" stroke-linecap="round"></path>
                <path d="M26,7.75 C26.6213203,7.75 27.1838203,8.00183983 27.5909903,8.40900974 C27.9981602,8.81617966 28.25,9.37867966 28.25,10 L28.25,10 L28.25,13 C28.25,13.6213203 27.9981602,14.1838203 27.5909903,14.5909903 C27.1838203,14.9981602 26.6213203,15.25 26,15.25 L26,15.25 L20.5,15.25 C19.4644661,15.25 18.5269661,14.830267 17.8483496,14.1516504 C17.169733,13.4730339 16.75,12.5355339 16.75,11.5 C16.75,10.4644661 17.169733,9.52696609 17.8483496,8.84834957 C18.5269661,8.16973305 19.4644661,7.75 20.5,7.75 L20.5,7.75 Z" id="矩形" stroke="#3E3B61" stroke-width="1.5"></path>
                <path d="M21.4,12.45 C22.0903559,12.45 22.65,11.8903559 22.65,11.2 C22.65,10.5096441 22.0903559,9.95 21.4,9.95 C20.7096441,9.95 20.15,10.5096441 20.15,11.2 C20.15,11.8903559 20.7096441,12.45 21.4,12.45 Z" id="椭圆形" fill="#3E3B61"></path>
            </g>
        </g>
    </g>
</svg>