<?xml version="1.0" encoding="UTF-8"?>
<svg width="30px" height="24px" viewBox="0 0 30 24" version="1.1" xmlns="http://www.w3.org/2000/svg" xmlns:xlink="http://www.w3.org/1999/xlink">
    <title>bottom_tab1_s</title>
    <defs>
        <linearGradient x1="76.6908117%" y1="92.4697111%" x2="-27.7965463%" y2="-17.4791366%" id="linearGradient-1">
            <stop stop-color="#7C42FC" offset="0%"></stop>
            <stop stop-color="#5C5EFD" offset="100%"></stop>
        </linearGradient>
    </defs>
    <g id="右上角插件" stroke="none" stroke-width="1" fill="none" fill-rule="evenodd">
        <g id="切图" transform="translate(-60.000000, -28.000000)" fill-rule="nonzero">
            <g id="bottom_tab1_s" transform="translate(60.000000, 25.000000)">
                <rect id="矩形" fill="#000000" opacity="0" x="0" y="0" width="30" height="30"></rect>
                <path d="M14.84375,3.12500001 C19.1125,3.12500001 22.841875,5.43875001 24.844375,8.88125001 C27.17625,9.504375 28.721875,10.6225 29,12.19875 C29.278125,13.77625 28.20625,15.35625 26.225,16.740625 C25.25625,22.146875 20.529375,26.25 14.84375,26.25 C10.58125,26.25 6.85812501,23.94375 4.85312499,20.511875 C2.51499999,19.88875 0.965625,18.77 0.68687499,17.19125 C0.40875,15.61375 1.47999999,14.03375 3.45999999,12.65 C4.42250001,7.23624999 9.15312501,3.12500001 14.84375,3.12500001 Z" id="路径" fill="url(#linearGradient-1)"></path>
                <path d="M21.564375,17.0425 C21.8765203,16.9187735 22.231,16.9714305 22.4937021,17.1805489 C22.7564042,17.3896673 22.8872099,17.7233116 22.8366309,18.0552523 C22.7860519,18.3871931 22.5618124,18.6667378 22.24875,18.788125 C20.34,19.536875 18.165,20.138125 15.874375,20.5425 C13.615625,20.940625 11.3975,21.12 9.36999999,21.07625 C8.85223304,21.0652043 8.4414543,20.636517 8.4525,20.11875 C8.4635457,19.600983 8.89223306,19.1902043 9.41000001,19.20125 C11.3125,19.2425 13.408125,19.073125 15.54875,18.695625 C17.719375,18.313125 19.77375,17.745 21.564375,17.0425 L21.564375,17.0425 Z" id="路径" fill="#FFFFFF"></path>
            </g>
        </g>
    </g>
</svg>