<?xml version="1.0" encoding="UTF-8"?>
<svg width="30px" height="24px" viewBox="0 0 30 24" version="1.1" xmlns="http://www.w3.org/2000/svg" xmlns:xlink="http://www.w3.org/1999/xlink">
    <title>bottom_tab3_s</title>
    <defs>
        <linearGradient x1="-52.2808556%" y1="-18.8439511%" x2="93.5138561%" y2="84.3216448%" id="linearGradient-1">
            <stop stop-color="#5B5FFD" offset="0%"></stop>
            <stop stop-color="#7C42FC" offset="100%"></stop>
        </linearGradient>
        <path d="M8.4,0 L17.3407698,0 C21.9799617,9.24151113e-16 25.7407698,3.7608081 25.7407698,8.4 L25.7407698,14.6 C25.7407698,19.2391919 21.9799617,23 17.3407698,23 L8.4,23 C3.7608081,23 5.68137151e-16,19.2391919 0,14.6 L0,8.4 C-5.68137151e-16,3.7608081 3.7608081,2.62856257e-15 8.4,0 Z" id="path-2"></path>
    </defs>
    <g id="右上角插件" stroke="none" stroke-width="1" fill="none" fill-rule="evenodd">
        <g id="切图" transform="translate(-201.000000, -28.000000)">
            <g id="bottom_tab3_s" transform="translate(202.000000, 28.000000)">
                <path d="M17.5,9 L26,9 C27.1045695,9 28,9.8954305 28,11 L28,12 C28,13.1045695 27.1045695,14 26,14 L17.5,14 C16.1192881,14 15,12.8807119 15,11.5 C15,10.1192881 16.1192881,9 17.5,9 Z" id="矩形" fill="#7944FC"></path>
                <mask id="mask-3" fill="white">
                    <use xlink:href="#path-2"></use>
                </mask>
                <use id="矩形" fill="url(#linearGradient-1)" xlink:href="#path-2"></use>
                <path d="M20.4,12.5 C21.0903559,12.5 21.65,11.9403559 21.65,11.25 C21.65,10.5596441 21.0903559,10 20.4,10 C19.7096441,10 19.15,10.5596441 19.15,11.25 C19.15,11.9403559 19.7096441,12.5 20.4,12.5 Z" id="椭圆形" fill="#FFFFFF" mask="url(#mask-3)"></path>
                <path d="M26,8 C26.2761424,8 26.5261424,8.11192881 26.7071068,8.29289322 C26.8880712,8.47385763 27,8.72385763 27,9 L27,9 L27,14 C27,14.2761424 26.8880712,14.5261424 26.7071068,14.7071068 C26.5261424,14.8880712 26.2761424,15 26,15 L26,15 L19.5,15 C18.5335017,15 17.6585017,14.6082492 17.0251263,13.9748737 C16.3917508,13.3414983 16,12.4664983 16,11.5 C16,10.5335017 16.3917508,9.65850169 17.0251263,9.02512627 C17.6585017,8.39175084 18.5335017,8 19.5,8 L19.5,8 Z" id="矩形" stroke="#FFFFFF" stroke-width="2" mask="url(#mask-3)"></path>
            </g>
        </g>
    </g>
</svg>