<?xml version="1.0" encoding="UTF-8"?>
<svg width="17px" height="15px" viewBox="0 0 17 15" version="1.1" xmlns="http://www.w3.org/2000/svg" xmlns:xlink="http://www.w3.org/1999/xlink">
    <title>home_tab_01</title>
    <g id="右上角插件" stroke="none" stroke-width="1" fill="none" fill-rule="evenodd">
        <g id="首页" transform="translate(-1811.000000, -80.000000)" fill-rule="nonzero">
            <g id="home_tab_01" transform="translate(1819.500000, 87.500000) scale(-1, 1) translate(-1819.500000, -87.500000) translate(1811.000000, 80.000000)">
                <rect id="矩形" fill="#000000" opacity="0" x="0" y="0" width="11.9" height="11.6666667"></rect>
                <path d="M16.1506898,1.69015558 L0.865996261,1.69015558 C0.432477159,1.69015558 0.0336395799,1.33894126 0.00235820318,0.907613556 C-0.0151327611,0.673272579 0.0663113962,0.442272736 0.227138354,0.270070221 C0.387965313,0.0978677064 0.613651203,0 0.850015553,0 L16.132669,0 C16.5675481,0 16.9667257,0.351214326 16.9976671,0.78254204 C17.0151494,1.01676581 16.9337956,1.24765748 16.7731184,1.41983781 C16.6124411,1.59201814 16.3869358,1.68995402 16.1506898,1.69015558 Z M13.7189369,8.34507779 L0.745433128,8.34507779 C0.372269887,8.34507779 0.0289596993,7.99386347 0.00203341181,7.56253575 C-0.0130224038,7.32819478 0.0570828492,7.09719494 0.195518984,6.92499243 C0.33395512,6.75278991 0.528220326,6.65492221 0.731677304,6.65492221 L13.703425,6.65492221 C14.077759,6.65492221 14.4210691,7.00613653 14.4479954,7.43712621 C14.4631292,7.67140614 14.3931401,7.90238855 14.2548232,8.07464496 C14.1165064,8.24690138 13.9223469,8.34488316 13.7189369,8.34507779 Z M11.900678,15 L0.865996261,15 C0.432477159,15 0.0336395799,14.6487857 0.00235820318,14.217796 C-0.0152320417,13.9833989 0.0661675559,13.7523082 0.227005683,13.5800296 C0.387843809,13.407751 0.613587507,13.3098444 0.850015553,13.3098444 L11.8826572,13.3098444 C12.3175363,13.3098444 12.7163739,13.6610587 12.7476553,14.0920484 C12.7652368,14.3263283 12.6839276,14.5573108 12.5232392,14.7295672 C12.3625508,14.9018236 12.1369877,14.9998054 11.900678,15 Z" id="形状" fill="#3E3B61"></path>
            </g>
        </g>
    </g>
</svg>