<?xml version="1.0" encoding="UTF-8"?>
<svg width="16px" height="16px" viewBox="0 0 16 16" version="1.1" xmlns="http://www.w3.org/2000/svg" xmlns:xlink="http://www.w3.org/1999/xlink">
    <title>icon_screen</title>
    <g id="页面-1" stroke="none" stroke-width="1" fill="none" fill-rule="evenodd">
        <g id="2-2" transform="translate(-1127.000000, -517.000000)" fill-rule="nonzero">
            <g id="筛选1" transform="translate(1135.000000, 525.000000) scale(-1, 1) translate(-1135.000000, -525.000000) translate(1127.000000, 517.000000)">
                <rect id="矩形" fill="#000000" opacity="0" x="0" y="1" width="11.2004624" height="11.2004624"></rect>
                <path d="M15.2006276,2.60006606 L0.815073653,2.60006606 C0.407056809,2.60006606 0.0316813065,2.26757234 0.00224009249,1.85923548 C-0.0142219458,1.63738546 0.0624311658,1.41869849 0.213797294,1.2556748 C0.365163423,1.09265111 0.577573082,1 0.800033029,1 L15.1836669,1 C15.5929638,1 15.9686593,1.33249372 15.9977805,1.74083059 C16.0142344,1.96256965 15.9376663,2.18115421 15.7864411,2.3441569 C15.6352159,2.50715959 15.4229762,2.59987524 15.2006276,2.60006606 Z M7.0003303,8.90026425 L0.815073653,8.90026425 C0.407056809,8.90026425 0.0316813065,8.56777052 0.00224009249,8.15943366 C-0.0142219426,7.93758364 0.0624311704,7.71889667 0.213797299,7.55587299 C0.365163427,7.3928493 0.577573084,7.30019819 0.800033029,7.30019819 L6.98336961,7.30019819 C7.39266651,7.30019819 7.768042,7.63269191 7.79748322,8.04070875 C7.8140305,8.26250098 7.73750436,8.48117145 7.58626865,8.64424616 C7.43503294,8.80732088 7.22273887,8.90007999 7.0003303,8.90026425 Z M11.2006276,15.2004624 L0.815073653,15.2004624 C0.407056809,15.2004624 0.0316813065,14.8679687 0.00224009249,14.4599519 C-0.0143153861,14.2380487 0.062295787,14.0192758 0.213672427,13.85618 C0.365049067,13.6930843 0.577513134,13.6003964 0.800033029,13.6003964 L11.1836669,13.6003964 C11.5929638,13.6003964 11.9683393,13.9328901 11.9977805,14.3409069 C12.0143278,14.5626992 11.9378016,14.7813696 11.7865659,14.9444444 C11.6353302,15.1075191 11.4230362,15.2002782 11.2006276,15.2004624 Z" id="形状" fill="#9D9D9D"></path>
            </g>
        </g>
    </g>
</svg>