<?xml version="1.0" encoding="UTF-8"?>
<svg width="8px" height="8px" viewBox="0 0 8 8" version="1.1" xmlns="http://www.w3.org/2000/svg" xmlns:xlink="http://www.w3.org/1999/xlink">
    <title>icon_copy</title>
    <g id="右上角插件" stroke="none" stroke-width="1" fill="none" fill-rule="evenodd">
        <g id="首页" transform="translate(-1738.000000, -239.000000)" fill-rule="nonzero">
            <g id="icon_copy" transform="translate(1738.000000, 239.000000)">
                <rect id="矩形" fill="#000000" opacity="0" x="0" y="0" width="8" height="8"></rect>
                <path d="M6.51039063,5.9996875 L5.79242188,5.9996875 C5.62265625,5.9996875 5.48507813,5.8621875 5.48507813,5.69234375 C5.48507813,5.5225 5.62273438,5.385 5.79242188,5.385 L6.51039063,5.385 C6.57929688,5.385 6.63523438,5.32890625 6.63523438,5.26015625 L6.63523438,1.5140625 C6.63523438,1.4453125 6.57921875,1.38921875 6.51039063,1.38921875 L2.764375,1.38921875 C2.69546875,1.38921875 2.63953125,1.4453125 2.63953125,1.5140625 L2.63953125,2.22390625 C2.63953125,2.39382813 2.501875,2.53125 2.3321875,2.53125 C2.1625,2.53125 2.02484375,2.39375 2.02484375,2.22390625 L2.02484375,1.5140625 C2.02484375,1.10617187 2.35664063,0.774453125 2.76445313,0.774453125 L6.51046875,0.774453125 C6.91820312,0.774453125 7.25007812,1.10609375 7.25007812,1.5140625 L7.25007812,5.26007812 C7.25,5.66796875 6.918125,5.9996875 6.51039062,5.9996875 L6.51039063,5.9996875 Z" id="路径" fill="#999999"></path>
                <path d="M5.2809375,7.22914062 L1.53492188,7.22914062 C1.1271875,7.22914062 0.7953125,6.8975 0.7953125,6.48953125 L0.7953125,2.74351563 C0.7953125,2.335625 1.12710938,2.00390625 1.53492188,2.00390625 L5.2809375,2.00390625 C5.68867188,2.00390625 6.02054688,2.33554687 6.02054688,2.74351563 L6.02054688,6.48953125 C6.02046875,6.8975 5.68867188,7.22914062 5.2809375,7.22914062 Z M1.53492188,2.61867187 C1.46601563,2.61867187 1.41007813,2.67476563 1.41007813,2.74351562 L1.41007813,6.48953125 C1.41007813,6.55828125 1.46609375,6.614375 1.53492188,6.614375 L5.2809375,6.614375 C5.34984375,6.614375 5.40578125,6.55828125 5.40578125,6.48953125 L5.40578125,2.74351562 C5.40578125,2.67476563 5.34976563,2.61867187 5.2809375,2.61867187 L1.53492188,2.61867187 Z" id="形状" fill="#999999"></path>
            </g>
        </g>
    </g>
</svg>