<?xml version="1.0" encoding="UTF-8"?>
<svg width="16px" height="16px" viewBox="0 0 16 16" version="1.1" xmlns="http://www.w3.org/2000/svg" xmlns:xlink="http://www.w3.org/1999/xlink">
    <title>icon_search</title>
    <g id="页面-1" stroke="none" stroke-width="1" fill="none" fill-rule="evenodd">
        <g id="2-2" transform="translate(-823.000000, -517.000000)" fill-rule="nonzero">
            <g id="编组-7" transform="translate(798.000000, 404.000000)">
                <g id="搜索" transform="translate(25.000000, 113.000000)">
                    <rect id="矩形" fill="#000000" opacity="0" x="3.94378822e-06" y="4.1156627e-06" width="15.9999959" height="15.9999959"></rect>
                    <path d="M10.7237672,12.132301 C7.89322407,14.2255074 3.92738669,13.7815358 1.62977747,11.1142376 C-0.667831742,8.44693952 -0.51956832,4.45908359 1.96975763,1.96975763 C4.45908359,-0.51956832 8.44693952,-0.667831742 11.1142376,1.62977747 C13.7815358,3.92738669 14.2255074,7.89322407 12.132301,10.7237672 L15.7021859,14.2925098 C16.0914572,14.6817811 16.0914572,15.3129146 15.7021859,15.7021859 C15.3129146,16.0914572 14.6817811,16.0914572 14.2925098,15.7021859 L10.7237672,12.132301 Z M10.5010063,10.3433602 C12.4843054,8.2736511 12.4318528,4.99309809 10.3833996,2.98785238 C8.33494641,0.982606669 5.0540207,1.00009151 3.0270561,3.0270561 C1.00009151,5.0540207 0.982606669,8.33494641 2.98785238,10.3833996 C4.99309809,12.4318528 8.2736511,12.4843054 10.3433602,10.5010063 C10.3899155,10.4427878 10.4427878,10.3899155 10.5010063,10.3433602 L10.5010063,10.3433602 Z" id="形状" fill="#9D9D9D"></path>
                </g>
            </g>
        </g>
    </g>
</svg>