<?xml version="1.0" encoding="UTF-8"?>
<svg width="16px" height="16px" viewBox="0 0 16 16" version="1.1" xmlns="http://www.w3.org/2000/svg" xmlns:xlink="http://www.w3.org/1999/xlink">
    <title>icon_window</title>
    <g id="页面-1" stroke="none" stroke-width="1" fill="none" fill-rule="evenodd">
        <g id="2-2" transform="translate(-1053.000000, -416.000000)" fill-rule="nonzero">
            <g id="编组-7" transform="translate(798.000000, 404.000000)">
                <g id="48-导出" transform="translate(255.000000, 12.000000)">
                    <rect id="矩形" fill="#000000" opacity="0" x="0" y="0" width="16" height="16"></rect>
                    <path d="M13.3313371,8 C12.9626351,8 12.6642364,8.2984375 12.6642364,8.6671875 L12.6642364,12 C12.6642364,12.3671875 12.3658378,12.6671875 11.9971358,12.6671875 L3.99973962,12.6671875 C3.63259992,12.6671875 3.33263898,12.36875 3.33263898,12 L3.33263898,4 C3.33263898,3.6328125 3.63103763,3.3328125 3.99973962,3.3328125 L7.33211821,3.3328125 C7.70082021,3.3328125 7.99921885,3.034375 7.99921885,2.665625 C7.99921885,2.296875 7.70082021,2 7.33211821,2 L3.99973962,2 C2.89675823,2 2,2.896875 2,4 L2,12 C2,13.103125 2.89675823,14 3.99973962,14 L11.9986981,14 C13.1016795,14 13.9984377,13.103125 13.9984377,12 L13.9984377,8.6671875 C13.9984377,8.2984375 13.7000391,8 13.3313371,8 Z M13.9468819,2.4125 C13.8797032,2.25 13.7500325,2.11875 13.5859914,2.0515625 C13.504752,2.0171875 13.4188257,2 13.3313371,2 L9.99895847,2 C9.63025648,2 9.33185783,2.2984375 9.33185783,2.6671875 C9.33185783,3.0359375 9.63025648,3.334375 9.99895847,3.334375 L11.7221716,3.334375 L7.52740529,7.528125 C7.26650176,7.7890625 7.26650176,8.2109375 7.52740529,8.4703125 C7.6570759,8.6 7.82736623,8.665625 7.99921885,8.665625 C8.16950918,8.665625 8.33979951,8.6 8.47103242,8.4703125 L12.6657987,4.275 L12.6657987,6 C12.6657987,6.36875 12.9641974,6.6671875 13.3328994,6.6671875 C13.7016014,6.6671875 14,6.36875 14,6 L14,2.6671875 C13.9984377,2.5796875 13.9812524,2.49375 13.9468819,2.4125 L13.9468819,2.4125 Z" id="形状" fill="#6D6D6D"></path>
                </g>
            </g>
        </g>
    </g>
</svg>