<?xml version="1.0" encoding="UTF-8"?>
<svg width="68px" height="64px" viewBox="0 0 68 64" version="1.1" xmlns="http://www.w3.org/2000/svg" xmlns:xlink="http://www.w3.org/1999/xlink">
    <title>icon_succeed</title>
    <g id="右上角插件" stroke="none" stroke-width="1" fill="none" fill-rule="evenodd">
        <g id="弹窗" transform="translate(-1355.000000, -222.000000)">
            <g id="MBE风格多色图标-发送" transform="translate(1353.000000, 222.000000)">
                <rect id="矩形" fill="#000000" fill-rule="nonzero" opacity="0" x="0" y="0" width="64" height="64"></rect>
                <path d="M34.2872272,11.0232185 L33.2027702,9.93876145 L34.2924661,8.84906549 C34.5367083,8.6048233 34.5376116,8.22996933 34.2945436,7.98690138 C34.0514757,7.74383342 33.6766217,7.74473668 33.4323795,7.98897888 L32.3426836,9.07867484 L31.2582265,7.9942178 C31.0151586,7.75114985 30.6403046,7.75205311 30.3960624,7.99629531 C30.1518202,8.2405375 30.150917,8.61539147 30.3939849,8.85845942 L31.478442,9.94291646 L30.4075339,11.0138246 C30.1632917,11.2580668 30.1623884,11.6329207 30.4054564,11.8759887 C30.6485243,12.1190566 31.0233783,12.1181534 31.2676205,11.8739112 L32.3573164,10.7842152 L33.4417735,11.8686722 C33.6848414,12.1117402 34.0596954,12.1108369 34.3039376,11.8665947 C34.5481798,11.6223525 34.5115976,11.2475889 34.2872272,11.0232185 Z M13.3077783,45.0531798 C12.0713932,44.7218915 11.7182314,43.5671392 11.45336,42.7010751 C11.1884887,41.8350109 11.0549434,41.4679392 10.6222086,41.3519882 C10.2203835,41.2443195 9.89028436,41.4871581 9.22786693,42.104756 C8.59635914,42.7306361 7.71313591,43.5540999 6.44584122,43.2145293 C5.20945617,42.883241 4.85629434,41.7284887 4.59142297,40.8624246 C4.3265516,39.9963604 4.19300631,39.6292887 3.76027154,39.5133377 C3.35844639,39.405669 3.13217222,39.0137506 3.23984095,38.6119255 C3.34750967,38.2101004 3.73942803,37.9838262 4.14125317,38.0914949 C5.37763823,38.4227833 5.73080006,39.5775355 5.99567143,40.4435997 C6.2605428,41.3096639 6.39408809,41.6767356 6.82682286,41.7926865 C7.228648,41.9003553 7.55874711,41.6575167 8.22116453,41.0399188 C8.85267233,40.4140387 9.73589556,39.5905748 11.0031902,39.9301454 C12.2395753,40.2614338 12.5927371,41.416186 12.8576085,42.2822502 C13.1224799,43.1483144 13.2560252,43.5153861 13.6887599,43.631337 C14.1214947,43.747288 14.4289664,43.4652575 15.0831016,42.8785693 C15.7146094,42.2526892 16.5978326,41.4292253 17.8651273,41.7687959 C18.2669525,41.8764646 18.4932266,42.268383 18.3855579,42.6702081 C18.2778892,43.0720333 17.8859708,43.2983074 17.4841457,43.1906387 C17.0514109,43.0746878 16.7522214,43.3258086 16.089804,43.9434065 C15.4665784,44.5383769 14.575073,45.3927504 13.3077783,45.0531798 L13.3077783,45.0531798 Z" id="形状" fill="#C1BCFC" fill-rule="nonzero"></path>
                <path d="M9.67952,23.8828 L11.92952,21.6328 L14.17952,23.8825514 L11.9297686,26.1328 L9.67952,23.8828 Z M65.288,18.544 L67.464,16.336 L63.112,16.336 L65.288,18.544 Z" id="形状" fill="#C1BCFC" fill-rule="nonzero"></path>
                <path d="M51.568,43.592 C51.568,44.7230792 52.4849208,45.64 53.616,45.64 C54.7470792,45.64 55.664,44.7230792 55.664,43.592 C55.664,42.4609208 54.7470792,41.544 53.616,41.544 C52.4849208,41.544 51.568,42.4609208 51.568,43.592 Z" id="路径" fill="#C1BCFC" fill-rule="nonzero"></path>
                <g id="编组-14" transform="translate(13.154639, 15.645874)">
                    <path d="M17.0817977,10.1396411 L25.5102794,29.1953389 C25.9570844,30.2055067 25.5003886,31.3866166 24.4902207,31.8334216 C24.2354009,31.9461304 23.9598419,32.0043509 23.6812087,32.0043509 L6.82424531,32.0043509 C5.71967581,32.0043509 4.82424531,31.1089204 4.82424531,30.0043509 C4.82424531,29.7257177 4.88246584,29.4501587 4.99517463,29.1953389 L13.4236563,10.1396411 C13.8704613,9.12947328 15.0515712,8.67277747 16.061739,9.11958247 C16.5168153,9.32086623 16.8805139,9.68456481 17.0817977,10.1396411 Z" id="三角形" fill="#C1BCFC" transform="translate(15.252727, 19.004351) rotate(200.000000) translate(-15.252727, -19.004351) "></path>
                    <path d="M31.084415,19.8031943 C32.5302522,17.3072006 34.1599136,15.2750241 35.9733991,13.7066647 C38.6936274,11.3541256 43.7091496,11.647198 43.7091496,11.647198" id="路径-4" stroke="#C1BCFC" stroke-width="2" stroke-linecap="round"></path>
                    <path d="M28.9662406,14.389692 C28.9662406,13.1108768 30.210498,7.56941265 34.5932751,6.77003086 C37.5151266,6.23710966 38.9760523,4.68995896 38.9760523,2.12857875" id="路径-5" stroke="#C1BCFC" stroke-width="2" stroke-linecap="round"></path>
                    <path d="M19.420582,11.9706491 C21.8040822,11.1510136 23.6903058,9.87032354 25.0792528,8.12857875 C27.1626732,5.51596157 27.024053,1.73189461 26.912053,0" id="路径-2" stroke="#C1BCFC" stroke-width="2" stroke-linecap="round"></path>
                    <path d="M21.9743404,3.27372886 C22.2277205,3.35250372 22.4628924,3.48091075 22.6661569,3.65146994 L36.6731381,15.4047227 C37.5192874,16.1147263 37.6296553,17.3762374 36.9196517,18.2223868 C36.7490925,18.4256513 36.5397911,18.5929447 36.3039396,18.7145218 L15.2723732,29.5559052 C14.2905709,30.0620061 13.0843871,29.676374 12.5782862,28.6945717 C12.3377934,28.2280316 12.2903411,27.6856496 12.4461664,27.1844362 L19.4707517,4.58980005 C19.7986756,3.53503009 20.9195705,2.94580494 21.9743404,3.27372886 Z M22.6579262,10.3741431 C22.2348515,10.0191413 21.6040959,10.0743253 21.2490941,10.4974 C20.8940923,10.9204746 20.9492763,11.5512302 21.372351,11.906232 L21.372351,11.906232 L29.0327954,18.3341081 C29.45587,18.6891099 30.0866256,18.6339259 30.4416274,18.2108513 C30.7966292,17.7877766 30.7414453,17.157021 30.3183706,16.8020192 L30.3183706,16.8020192 Z" id="形状结合" fill="#6E62FF"></path>
                </g>
            </g>
        </g>
    </g>
</svg>