<?xml version="1.0" encoding="UTF-8"?>
<svg width="8px" height="8px" viewBox="0 0 8 8" version="1.1" xmlns="http://www.w3.org/2000/svg" xmlns:xlink="http://www.w3.org/1999/xlink">
    <title>icon_left2</title>
    <g id="右上角插件" stroke="none" stroke-width="1" fill="none" fill-rule="evenodd">
        <g id="首页" transform="translate(-1813.000000, -399.000000)" fill="#000000" fill-rule="nonzero">
            <g id="编组-13" transform="translate(1535.000000, 65.000000)">
                <g id="编组-7" transform="translate(12.000000, 322.000000)">
                    <g id="向右1" transform="translate(266.000000, 12.000000)">
                        <rect id="矩形" opacity="0" x="0" y="0" width="8" height="8"></rect>
                        <path d="M5.94574654,4.15725037 C5.94975137,4.14949603 5.95624244,4.14300497 5.95975003,4.1349953 C6.02850423,3.99199033 6.00599381,3.81700041 5.88424943,3.70198898 L3.1244994,1.09174842 C2.97399544,0.949496039 2.73675581,0.956242445 2.59424809,1.1065045 C2.4519957,1.25700846 2.4585002,1.49424809 2.60900416,1.63675581 L5.08525736,3.9792501 L2.61874748,6.35649778 C2.46974869,6.5002419 2.4652466,6.73749496 2.60900416,6.88674909 C2.68250235,6.96324419 2.78075527,7.00150517 2.8790082,7.00150517 C2.97275904,7.00150517 3.06650987,6.96650987 3.13925548,6.89650584 L5.87400887,4.26075796 C5.87926354,4.25550329 5.88125252,4.24825964 5.88650719,4.24276307 C5.89051202,4.23901358 5.89475877,4.23625857 5.89875016,4.23226717 C5.91999731,4.20999866 5.9312458,4.18274426 5.94574654,4.15725037 Z" id="路径"></path>
                    </g>
                </g>
            </g>
        </g>
    </g>
</svg>