<?xml version="1.0" encoding="UTF-8"?>
<svg width="36px" height="36px" viewBox="0 0 36 36" version="1.1" xmlns="http://www.w3.org/2000/svg" xmlns:xlink="http://www.w3.org/1999/xlink">
    <title>logo_medium</title>
    <g id="右上角插件" stroke="none" stroke-width="1" fill="none" fill-rule="evenodd">
        <g id="首页" transform="translate(-1790.000000, -149.000000)">
            <g id="编组-13" transform="translate(1535.000000, 65.000000)">
                <g id="logo_medium" transform="translate(255.000000, 84.000000)">
                    <rect id="矩形" fill="#0E0E0E" x="0" y="0" width="36" height="36" rx="11"></rect>
                    <g id="编组-14" transform="translate(6.000000, 11.000000)" fill="#FFFFFF">
                        <path d="M7,14 C10.8659932,14 13.5541993,10.8659932 13.5541993,7 C13.5541993,3.13400675 10.8659932,0 7,0 C3.13400675,0 2.27373675e-13,3.13400675 2.27373675e-13,7 C2.27373675e-13,10.8659932 3.13400675,14 7,14 Z" id="椭圆形"></path>
                        <path d="M17.5,13.5345133 C19.4329966,13.5345133 21,10.8424501 21,6.97645689 C21,3.11046364 19.4329966,0.41840049 17.5,0.41840049 C15.5670034,0.41840049 14,3.13400675 14,7 C14,10.8659932 15.5670034,13.5345133 17.5,13.5345133 Z" id="椭圆形"></path>
                        <path d="M22.762345,12.8613701 C23.5907722,12.8613701 24,10.3137085 24,7 C24,3.6862915 23.5907722,1.10457924 22.762345,1.10457924 C21.9339179,1.10457924 21.5246901,3.66274839 21.5246901,6.97645689 C21.5246901,10.2901654 21.9339179,12.8613701 22.762345,12.8613701 Z" id="椭圆形"></path>
                    </g>
                </g>
            </g>
        </g>
    </g>
</svg>