<?xml version="1.0" encoding="UTF-8"?>
<svg width="36px" height="36px" viewBox="0 0 36 36" version="1.1" xmlns="http://www.w3.org/2000/svg" xmlns:xlink="http://www.w3.org/1999/xlink">
    <title>logo_tiktok</title>
    <g id="右上角插件" stroke="none" stroke-width="1" fill="none" fill-rule="evenodd">
        <g id="首页" transform="translate(-1694.000000, -149.000000)">
            <g id="编组-13" transform="translate(1535.000000, 65.000000)">
                <g id="logo_tiktok" transform="translate(159.000000, 84.000000)">
                    <rect id="矩形" fill="#010101" x="0" y="0" width="36" height="36" rx="11"></rect>
                    <g id="external_-tiktok" transform="translate(6.000000, 6.000000)" fill-rule="nonzero">
                        <rect id="矩形" fill="#000000" opacity="0" x="0" y="0" width="24" height="24"></rect>
                        <path d="M17.1873315,9.58682647 L17.1873315,16.8168265 C17.1873315,20.5088265 14.3693315,23.4988265 10.8923315,23.4988265 C7.41633147,23.4988265 4.59833147,20.5088265 4.59833147,16.8168265 C4.59833147,13.1248265 7.41633147,10.1348265 10.8923315,10.1348265 C11.2403315,10.1348265 11.5783315,10.1648265 11.9073315,10.2228265 L11.9073315,14.0528265 C11.5929664,13.9276191 11.2577132,13.8631473 10.9193315,13.8628265 C9.36833147,13.8628265 8.10933147,15.1978265 8.10933147,16.8458265 C8.10933147,18.4918265 9.36833147,19.8278265 10.9193315,19.8278265 C12.4693315,19.8278265 13.7273315,18.4918265 13.7273315,16.8458265 L13.7273315,2.48382646 L17.2383315,2.48382646 C17.2383315,5.24382646 19.3473315,7.48082645 21.9483315,7.48082647 L21.9483315,11.1808265 L21.9233315,11.1828265 C20.2127453,11.1822265 18.54938,10.6216836 17.1873315,9.58682647 Z" id="路径" fill="#FD1753"></path>
                        <path d="M20.976,10.684 C19.2654138,10.6834 17.6020485,10.1228572 16.24,9.08800001 L16.24,16.318 C16.24,20.01 13.422,23 9.945,23 C6.46900001,23 3.651,20.01 3.651,16.318 C3.651,12.626 6.46900001,9.636 9.945,9.636 C10.293,9.636 10.631,9.666 10.96,9.72400001 L10.96,13.554 C10.6456349,13.4287926 10.3103818,13.3643208 9.972,13.364 C8.421,13.364 7.16200001,14.699 7.16200001,16.347 C7.16200001,17.993 8.421,19.329 9.972,19.329 C11.522,19.329 12.78,17.993 12.78,16.347 L12.78,1.98499999 L16.291,1.98499999 C16.291,4.74499999 18.4,6.98199998 21.001,6.98200001 L21.001,10.682 L20.976,10.684" id="路径" fill="#FFFFFF"></path>
                    </g>
                </g>
            </g>
        </g>
    </g>
</svg>