<?xml version="1.0" encoding="UTF-8"?>
<svg width="36px" height="36px" viewBox="0 0 36 36" version="1.1" xmlns="http://www.w3.org/2000/svg" xmlns:xlink="http://www.w3.org/1999/xlink">
    <title>logo_twitch</title>
    <defs>
        <rect id="path-1" x="0" y="0" width="36" height="36" rx="11"></rect>
    </defs>
    <g id="右上角插件" stroke="none" stroke-width="1" fill="none" fill-rule="evenodd">
        <g id="连接按钮" transform="translate(-1742.000000, -149.000000)">
            <g id="编组-13" transform="translate(1535.000000, 65.000000)">
                <g id="logo_twitch" transform="translate(207.000000, 84.000000)">
                    <mask id="mask-2" fill="white">
                        <use xlink:href="#path-1"></use>
                    </mask>
                    <use id="矩形" fill="#9047FF" xlink:href="#path-1"></use>
                    <g id="twitch" mask="url(#mask-2)" fill-rule="nonzero">
                        <g transform="translate(5.000000, 6.000000)">
                            <rect id="矩形" fill="#000000" opacity="0" x="0" y="0" width="28" height="28"></rect>
                            <path d="M14,6.78125 L14,13.5625 L11.734375,13.5625 L11.734375,6.78125 L14,6.78125 Z M20.21875,6.78125 L20.21875,13.5625 L17.953125,13.5625 L17.953125,6.78125 L20.21875,6.78125 Z M20.21875,18.65625 L24.171875,14.6875 L24.171875,2.265625 L5.51562501,2.265625 L5.51562501,18.65625 L10.609375,18.65625 L10.609375,22.046875 L14,18.65625 L20.21875,18.65625 Z M26.4375,0 L26.4375,15.828125 L19.65625,22.609375 L14.5625,22.609375 L11.171875,26 L7.78125001,26 L7.78125001,22.609375 L1.5625,22.609375 L1.5625,4.515625 L3.26562499,0 L26.4375,0 Z" id="形状" fill="#FFFFFF"></path>
                        </g>
                    </g>
                </g>
            </g>
        </g>
    </g>
</svg>