<?xml version="1.0" encoding="UTF-8"?>
<svg width="36px" height="36px" viewBox="0 0 36 36" version="1.1" xmlns="http://www.w3.org/2000/svg" xmlns:xlink="http://www.w3.org/1999/xlink">
    <title>logo_facebook</title>
    <g id="右上角插件" stroke="none" stroke-width="1" fill="none" fill-rule="evenodd">
        <g id="首页" transform="translate(-1598.000000, -149.000000)">
            <g id="编组-13" transform="translate(1535.000000, 65.000000)">
                <g id="编组-2" transform="translate(63.000000, 84.000000)">
                    <rect id="矩形" fill="#3B5999" x="0" y="0" width="36" height="36" rx="11"></rect>
                    <path d="M18.4313146,36 L18.4313146,22.7642144 L14,22.7642144 L14,17.6033702 C16.0592195,17.6033702 17.5363244,17.6033702 18.4313146,17.6033702 C18.4313146,13.3386905 18.0968418,11.2770952 19.7984209,9.23489851 C21.5,7.19270183 23.7488922,7 25.4889907,7 C26.6490564,7 27.8193928,7.06423394 29,7.19270183 L29,11.7974205 C27.2585168,11.7974205 26.2379778,11.7974205 25.938383,11.7974205 C25.4889907,11.7974205 24.8526307,11.9716907 24.5448003,12.1922445 C24.2369699,12.4127983 23.7890532,13.0031101 23.7890532,13.5957145 C23.7890532,13.9907842 23.7756662,15.3266694 23.7488922,17.6033702 L28.8227474,17.6033702 L28.1580502,22.7642144 L23.7890532,22.7642144 L23.7890532,36 L18.4313146,36 Z" id="路径-2" fill="#FFFFFF"></path>
                </g>
            </g>
        </g>
    </g>
</svg>