<?xml version="1.0" encoding="UTF-8"?>
<svg width="36px" height="36px" viewBox="0 0 36 36" version="1.1" xmlns="http://www.w3.org/2000/svg" xmlns:xlink="http://www.w3.org/1999/xlink">
    <title>logo_twitter</title>
    <g id="右上角插件" stroke="none" stroke-width="1" fill="none" fill-rule="evenodd">
        <g id="连接按钮" transform="translate(-1550.000000, -149.000000)">
            <g id="编组-13" transform="translate(1535.000000, 65.000000)">
                <g id="logo_twitter" transform="translate(15.000000, 84.000000)">
                    <g id="编组-2" fill="#56ADEE">
                        <rect id="矩形" x="0" y="0" width="36" height="36" rx="11"></rect>
                    </g>
                    <g id="twitter" transform="translate(2.000000, 2.000000)" fill-rule="nonzero">
                        <rect id="矩形" fill="#000000" opacity="0" x="0" y="0" width="32" height="32"></rect>
                        <path d="M29,7.946875 C28.04375,8.359375 27.003125,8.65625 25.93125,8.771875 C27.0375,8.1125 27.878125,7.071875 28.275,5.834375 C27.253125,6.44375 26.096875,6.890625 24.89375,7.121875 C23.91875,6.08125 22.534375,5.4375 21,5.4375 C18.046875,5.4375 15.671875,7.83125 15.671875,10.76875 C15.671875,11.18125 15.721875,11.59375 15.803125,11.990625 C11.38125,11.759375 7.4375,9.646875 4.815625,6.4125 C4.353125,7.20625 4.090625,8.1125 4.090625,9.103125 C4.090625,10.953125 5.03125,12.584375 6.465625,13.54375 C5.590625,13.509375 4.765625,13.2625 4.05625,12.865625 L4.05625,12.93125 C4.05625,15.521875 5.8875,17.66875 8.328125,18.1625 C7.88125,18.278125 7.403125,18.34375 6.925,18.34375 C6.578125,18.34375 6.25,18.309375 5.91875,18.2625 C6.59375,20.375 8.559375,21.909375 10.9,21.959375 C9.06875,23.39375 6.775,24.2375 4.284375,24.2375 C3.8375,24.2375 3.425,24.221875 2.996875,24.171875 C5.359375,25.6875 8.1625,26.5625 11.18125,26.5625 C20.98125,26.5625 26.34375,18.44375 26.34375,11.396875 C26.34375,11.165625 26.34375,10.934375 26.328125,10.703125 C27.365625,9.94375 28.275,9.003125 29,7.946875 Z" id="路径" fill="#FFFFFF"></path>
                    </g>
                </g>
            </g>
        </g>
    </g>
</svg>